<?xml version="1.0" encoding="utf-8"?>
<!-- Generator: Adobe Illustrator 17.0.0, SVG Export Plug-In . SVG Version: 6.00 Build 0)  -->
<!DOCTYPE svg PUBLIC "-//W3C//DTD SVG 1.1//EN" "http://www.w3.org/Graphics/SVG/1.1/DTD/svg11.dtd">
<svg version="1.1" id="图层_1" xmlns="http://www.w3.org/2000/svg" xmlns:xlink="http://www.w3.org/1999/xlink" x="0px" y="0px"
	 width="595.28px" height="220px" viewBox="0 316.445 595.28 220" enable-background="new 0 316.445 595.28 220"
	 xml:space="preserve">
<g>
	<path fill="#FFFFFF" d="M15.701,432.851c0.332-0.512,0.832-0.596,1.5-0.256c0.5,0.512,0.582,1.024,0.25,1.536
		c-5.666,9.051-8.497,18.693-8.497,28.937v4.097c0.332,0.856,0,1.281-1,1.281c-0.667,0-1-0.341-1-1.024
		c-0.168-0.853-0.25-1.621-0.25-2.305c0-0.681,0-1.364,0-2.049C6.705,451.972,9.704,441.901,15.701,432.851z M91.67,420.559
		c6.33,5.122,11.285,11.355,14.869,18.694c3.581,7.342,5.373,15.28,5.373,23.814c0,7.514-1.375,14.512-4.123,20.998
		c-2.749,6.49-6.541,12.163-11.371,17.029c-4.834,4.865-10.457,8.706-16.868,11.522c-6.416,2.817-13.206,4.226-20.367,4.226
		c-10.832,0-20.742-3.157-29.738-9.475c-0.668-0.513-0.75-1.024-0.25-1.536c0.332-0.681,0.832-0.853,1.5-0.513
		c8.497,6.146,17.993,9.219,28.488,9.219c6.997,0,13.576-1.364,19.742-4.097c6.162-2.729,11.495-6.402,15.994-11.012
		c4.498-4.609,8.079-10.026,10.745-16.261c2.663-6.229,3.999-12.932,3.999-20.102c0-8.194-1.667-15.789-4.998-22.791
		c-3.334-6.998-8.165-12.972-14.494-17.925c-8.997-7.338-19.328-11.011-30.987-11.011c-4.498,0-8.747-0.936-12.745-2.817
		c-3.998-1.876-7.497-4.353-10.496-7.426c-2.999-3.073-5.373-6.698-7.122-10.883c-1.749-4.181-2.624-8.579-2.624-13.188
		c0-4.778,0.875-9.259,2.624-13.444c1.75-4.182,4.124-7.811,7.122-10.883c2.999-3.073,6.537-5.506,10.621-7.298
		c4.081-1.792,8.454-2.688,13.12-2.688c4.662,0,9.036,0.896,13.12,2.688c4.081,1.792,7.622,4.226,10.621,7.298
		c2.999,3.073,5.373,6.702,7.122,10.883c1.75,4.185,2.624,8.666,2.624,13.444c0,0.684-0.336,1.024-1,1.024
		c-0.835,0-1.25-0.34-1.25-1.024c0-4.438-0.835-8.579-2.499-12.42c-1.667-3.841-3.917-7.21-6.747-10.115
		c-2.835-2.901-6.123-5.206-9.871-6.914c-3.749-1.705-7.79-2.561-12.12-2.561c-4.334,0-8.372,0.856-12.12,2.561
		c-3.749,1.708-7.041,4.013-9.871,6.914c-2.835,2.905-5.084,6.274-6.747,10.115c-1.667,3.841-2.499,7.982-2.499,12.42
		c0,4.441,0.832,8.578,2.499,12.419c1.663,3.841,3.912,7.214,6.747,10.115c2.831,2.905,6.123,5.209,9.871,6.914
		c3.748,1.708,7.786,2.561,12.12,2.561C71.842,409.38,82.506,413.221,91.67,420.559z"/>
	<path fill="#FFFFFF" d="M207.871,428.754c0.832,0,1.25,0.344,1.25,1.023c0,0.856-0.418,1.281-1.25,1.281h-80.717v84.76
		c0,0.685-0.418,1.024-1.25,1.024c-0.667,0-1-0.34-1-1.024V343.993c0-0.852,0.332-1.28,1-1.28c0.832,0,1.25,0.428,1.25,1.28v84.761
		L207.871,428.754L207.871,428.754z M244.105,342.713c0.664,0,1,0.428,1,1.28v171.825c0,0.685-0.336,1.024-1,1.024
		c-0.835,0-1.25-0.34-1.25-1.024V343.993C242.856,343.141,243.27,342.713,244.105,342.713z"/>
	<path fill="#FFFFFF" d="M342.063,342.713c11.659,0,22.655,2.305,32.986,6.914c10.328,4.609,19.324,10.843,26.989,18.693
		c7.661,7.854,13.744,17.073,18.242,27.656c4.498,10.587,6.747,21.854,6.747,33.801c0,12.124-2.249,23.432-6.747,33.931
		c-4.498,10.498-10.581,19.717-18.242,27.655c-7.665,7.938-16.661,14.172-26.989,18.693c-10.331,4.525-21.327,6.786-32.986,6.786
		c-11.831,0-22.865-2.261-33.111-6.786c-10.246-4.521-19.242-10.755-26.989-18.693s-13.83-17.157-18.243-27.655
		c-4.416-10.499-6.622-21.807-6.622-33.931c0-7.51,0.914-14.808,2.749-21.894c1.831-7.082,4.412-13.868,7.747-20.357
		c0.5-0.512,1-0.596,1.5-0.256c0.664,0.172,0.832,0.684,0.5,1.537c-6.833,12.635-10.246,26.292-10.246,40.971
		c0,11.78,2.163,22.791,6.498,33.034c4.33,10.243,10.246,19.205,17.743,26.888c7.497,7.682,16.243,13.744,26.239,18.181
		c9.996,4.441,20.741,6.658,32.236,6.658c11.327,0,22.03-2.217,32.112-6.658c10.077-4.437,18.867-10.499,26.363-18.181
		c7.497-7.683,13.409-16.645,17.743-26.888c4.33-10.243,6.497-21.254,6.497-33.034c0-11.607-2.167-22.574-6.497-32.905
		c-4.334-10.327-10.246-19.334-17.743-27.016c-7.496-7.682-16.286-13.74-26.363-18.181c-10.082-4.437-20.785-6.658-32.112-6.658
		c-6.997,0-13.912,0.896-20.741,2.688c-6.833,1.792-13.245,4.397-19.242,7.811c-0.668,0.344-1.249,0.256-1.749-0.256
		c-0.336-0.68-0.168-1.192,0.5-1.536C313.657,346.386,327.401,342.713,342.063,342.713z"/>
	<path fill="#FFFFFF" d="M433.773,475.358c-0.668,0-1-0.34-1-1.023V343.993c0-0.852,0.332-1.28,1-1.28
		c0.831,0,1.249,0.428,1.249,1.28v130.342C435.022,475.019,434.604,475.358,433.773,475.358z M585.211,515.563
		c0,0.512-0.086,0.856-0.25,1.024c-0.168,0.172-0.418,0.256-0.75,0.256c-0.336,0-0.586-0.084-0.75-0.256l-74.469-69.14l-74.47,69.14
		c0,0.172-0.25,0.256-0.749,0.256c-0.336,0-0.586-0.084-0.75-0.256c-0.332-0.34-0.332-0.937,0-1.793l75.219-69.651
		c0.332-0.341,0.582-0.513,0.75-0.513c0.332,0,0.664,0.172,0.999,0.513l72.971,67.859V343.993c0-0.852,0.413-1.28,1.249-1.28
		c0.664,0,1,0.428,1,1.28V515.563z"/>
</g>
<g>
	<path fill="#FFFFFF" d="M291.811,419.184c1.199,0.519,2.248,1.226,3.145,2.122c0.896,0.897,1.604,1.945,2.122,3.146
		c0.518,1.2,0.777,2.481,0.777,3.846s-0.259,2.653-0.777,3.865c-0.518,1.213-1.226,2.268-2.122,3.164
		c-0.897,0.897-1.946,1.604-3.145,2.122c-1.2,0.519-2.482,0.777-3.847,0.777c-1.844,0-3.518-0.455-5.021-1.364
		c-1.503-0.909-2.685-2.109-3.543-3.6v10.269c0,0.178-0.063,0.329-0.189,0.455c-0.126,0.127-0.291,0.189-0.493,0.189
		c-0.177,0-0.329-0.063-0.455-0.189c-0.126-0.126-0.189-0.277-0.189-0.455v-19.212c0-0.177,0.063-0.328,0.189-0.455
		c0.126-0.126,0.278-0.189,0.455-0.189c0.202,0,0.366,0.063,0.493,0.189c0.126,0.127,0.189,0.278,0.189,0.455v4.244
		c0.025,1.162,0.265,2.249,0.72,3.259c0.455,1.011,1.073,1.895,1.857,2.652c0.783,0.758,1.686,1.352,2.709,1.781
		c1.023,0.43,2.116,0.645,3.278,0.645c1.188,0,2.305-0.221,3.354-0.663c1.048-0.442,1.958-1.055,2.728-1.838
		s1.383-1.699,1.838-2.748c0.455-1.048,0.682-2.165,0.682-3.354c0-1.187-0.227-2.298-0.682-3.334
		c-0.455-1.036-1.067-1.945-1.838-2.729s-1.68-1.396-2.728-1.838c-1.049-0.442-2.167-0.663-3.354-0.663h-9.17
		c-0.203,0-0.36-0.063-0.474-0.189c-0.113-0.126-0.17-0.29-0.17-0.493c0-0.176,0.057-0.328,0.17-0.454
		c0.114-0.127,0.271-0.189,0.474-0.189h9.17C289.328,418.408,290.611,418.667,291.811,419.184z"/>
	<path fill="#FFFFFF" d="M314.529,430.647c0.177,0,0.328,0.057,0.454,0.171c0.127,0.113,0.189,0.271,0.189,0.474
		s-0.063,0.359-0.189,0.474c-0.126,0.113-0.277,0.17-0.454,0.17h-11.293v11.596c0,0.178-0.063,0.329-0.189,0.455
		c-0.126,0.127-0.29,0.189-0.492,0.189c-0.177,0-0.329-0.063-0.455-0.189c-0.126-0.126-0.189-0.277-0.189-0.455v-24.479
		c0-0.176,0.063-0.328,0.189-0.454c0.126-0.127,0.278-0.189,0.455-0.189c0.202,0,0.366,0.063,0.492,0.189
		c0.127,0.126,0.189,0.278,0.189,0.454v11.596h11.293V430.647z M319.796,418.408c0.176,0,0.327,0.063,0.454,0.189
		c0.126,0.126,0.189,0.278,0.189,0.454v24.479c0,0.178-0.063,0.329-0.189,0.455c-0.127,0.127-0.278,0.189-0.454,0.189
		c-0.203,0-0.367-0.063-0.493-0.189c-0.127-0.126-0.189-0.277-0.189-0.455v-24.479c0-0.176,0.063-0.328,0.189-0.454
		C319.429,418.47,319.593,418.408,319.796,418.408z"/>
	<path fill="#FFFFFF" d="M337.378,418.408c1.768,0,3.436,0.341,5.002,1.022c1.566,0.683,2.931,1.604,4.093,2.767
		c1.161,1.162,2.084,2.526,2.766,4.093c0.683,1.566,1.023,3.233,1.023,5.002c0,1.794-0.341,3.467-1.023,5.021
		s-1.604,2.918-2.766,4.093s-2.526,2.098-4.093,2.767s-3.234,1.004-5.002,1.004c-1.794,0-3.468-0.335-5.021-1.004
		s-2.917-1.592-4.092-2.767s-2.098-2.539-2.767-4.093c-0.67-1.554-1.004-3.227-1.004-5.021c0-1.111,0.139-2.191,0.417-3.24
		c0.277-1.048,0.669-2.052,1.174-3.013c0.228-0.354,0.531-0.429,0.91-0.228c0.151,0.076,0.252,0.203,0.303,0.379
		c0.051,0.178,0.038,0.342-0.038,0.493c-0.479,0.859-0.847,1.762-1.099,2.709c-0.253,0.947-0.379,1.914-0.379,2.899
		c0,1.592,0.303,3.095,0.909,4.509c0.606,1.415,1.434,2.647,2.482,3.695c1.048,1.049,2.279,1.876,3.694,2.481
		c1.415,0.606,2.918,0.91,4.51,0.91s3.088-0.304,4.49-0.91c1.402-0.605,2.627-1.433,3.676-2.481c1.048-1.048,1.876-2.28,2.482-3.695
		c0.606-1.414,0.909-2.917,0.909-4.509s-0.303-3.089-0.909-4.49c-0.606-1.402-1.435-2.628-2.482-3.676
		c-1.049-1.049-2.273-1.876-3.676-2.482s-2.898-0.909-4.49-0.909c-2.021,0-3.891,0.479-5.608,1.439
		c-0.151,0.076-0.316,0.089-0.492,0.038c-0.178-0.05-0.316-0.151-0.417-0.303c-0.076-0.152-0.089-0.316-0.038-0.493
		c0.05-0.177,0.151-0.303,0.303-0.379C333.071,418.951,335.155,418.408,337.378,418.408z"/>
	<path fill="#FFFFFF" d="M375.272,418.408c0.177,0,0.328,0.063,0.455,0.189c0.126,0.126,0.189,0.278,0.189,0.454
		c0,0.203-0.063,0.367-0.189,0.493c-0.127,0.126-0.278,0.189-0.455,0.189h-20.955c-0.177,0-0.329-0.063-0.455-0.189
		s-0.189-0.29-0.189-0.493c0-0.176,0.063-0.328,0.189-0.454c0.126-0.127,0.278-0.189,0.455-0.189H375.272z M364.813,423.636
		c0.177,0,0.328,0.063,0.455,0.189c0.126,0.127,0.189,0.291,0.189,0.493v19.212c0,0.178-0.063,0.329-0.189,0.455
		c-0.127,0.127-0.278,0.189-0.455,0.189c-0.202,0-0.366-0.063-0.492-0.189c-0.127-0.126-0.189-0.277-0.189-0.455v-19.212
		c0-0.202,0.063-0.366,0.189-0.493C364.447,423.7,364.611,423.636,364.813,423.636z"/>
	<path fill="#FFFFFF" d="M391.983,418.408c1.768,0,3.436,0.341,5.002,1.022c1.566,0.683,2.931,1.604,4.093,2.767
		c1.161,1.162,2.084,2.526,2.766,4.093c0.683,1.566,1.023,3.233,1.023,5.002c0,1.794-0.341,3.467-1.023,5.021
		s-1.604,2.918-2.766,4.093s-2.526,2.098-4.093,2.767s-3.234,1.004-5.002,1.004c-1.794,0-3.468-0.335-5.021-1.004
		s-2.917-1.592-4.092-2.767s-2.098-2.539-2.767-4.093c-0.67-1.554-1.004-3.227-1.004-5.021c0-1.111,0.139-2.191,0.417-3.24
		c0.277-1.048,0.669-2.052,1.174-3.013c0.228-0.354,0.531-0.429,0.91-0.228c0.151,0.076,0.252,0.203,0.303,0.379
		c0.051,0.178,0.038,0.342-0.038,0.493c-0.479,0.859-0.847,1.762-1.099,2.709c-0.253,0.947-0.379,1.914-0.379,2.899
		c0,1.592,0.303,3.095,0.909,4.509c0.606,1.415,1.434,2.647,2.482,3.695c1.048,1.049,2.279,1.876,3.694,2.481
		c1.415,0.606,2.918,0.91,4.51,0.91s3.088-0.304,4.49-0.91c1.402-0.605,2.627-1.433,3.676-2.481c1.048-1.048,1.876-2.28,2.482-3.695
		c0.606-1.414,0.909-2.917,0.909-4.509s-0.303-3.089-0.909-4.49c-0.606-1.402-1.435-2.628-2.482-3.676
		c-1.049-1.049-2.273-1.876-3.676-2.482s-2.898-0.909-4.49-0.909c-2.021,0-3.891,0.479-5.608,1.439
		c-0.151,0.076-0.316,0.089-0.492,0.038c-0.178-0.05-0.316-0.151-0.417-0.303c-0.076-0.152-0.089-0.316-0.038-0.493
		c0.05-0.177,0.151-0.303,0.303-0.379C387.675,418.951,389.759,418.408,391.983,418.408z"/>
</g>
</svg>
