<svg height="200" viewBox="0 0 1034 1024" width="201.953125" xmlns="http://www.w3.org/2000/svg"><path d="m692.559951 742.920976a18.425866 18.425866 0 0 0 -24.357326 9.269316l-70.546031 156.991983a18.425866 18.425866 0 1 0 33.626641 15.08801l70.500925-156.991984a18.425866 18.425866 0 0 0 -9.224209-24.357325zm70.117522 72.124747a18.3131 18.3131 0 0 0 -24.199453 9.201656l-37.641089 83.829795a18.290547 18.290547 0 0 0 33.378557 14.997797l37.663642-83.829794a18.3131 18.3131 0 0 0 -9.201657-24.199454zm9.585059-749.98009a112.630077 112.630077 0 0 0 -35.972161-9.382081 113.374328 113.374328 0 0 0 -20.297771-1.894459h-408.774558a113.036032 113.036032 0 0 0 0 226.072065h222.37336a15.133116 15.133116 0 0 1 5.435292 1.262972 14.862479 14.862479 0 0 1 7.465069 19.643732 7.600388 7.600388 0 0 1 -.428509.721698l-228.575456 509.158312a112.765395 112.765395 0 0 0 -8.637829 29.815171 50.924852 50.924852 0 0 1 28.101137 92.467624 112.630077 112.630077 0 0 0 37.347898 27.063695 113.036032 113.036032 0 0 0 149.414149-56.811206l309.360585-688.703374a113.013479 113.013479 0 0 0 -56.811206-149.414149zm-460.804511 180.605057a80.153643 80.153643 0 1 1 80.153643-80.153643 80.153643 80.153643 0 0 1 -80.153643 80.153643z" fill="#fff"/></svg>