<svg viewBox="0 0 458.61 454.04" xmlns="http://www.w3.org/2000/svg" xmlns:xlink="http://www.w3.org/1999/xlink"><linearGradient id="a" gradientUnits="userSpaceOnUse" x1="264.3" x2="311.9" y1="371.67" y2="371.67"><stop offset="0" stop-color="#13e0bc"/><stop offset="1" stop-color="#97ff7d"/></linearGradient><linearGradient id="b" x1="310.03" x2="342.96" xlink:href="#a" y1="387.38" y2="387.38"/><linearGradient id="c" x1="86.1" x2="372.02" xlink:href="#a" y1="226.98" y2="226.98"/><path d="m307.08 329.41a8.17 8.17 0 0 0 -10.8 4.11l-31.28 69.61a8.17 8.17 0 1 0 14.91 6.69l31.26-69.61a8.17 8.17 0 0 0 -4.09-10.8z" fill="url(#a)"/><path d="m338.17 361.39a8.12 8.12 0 0 0 -10.73 4.08l-16.69 37.17a8.11 8.11 0 0 0 14.8 6.65l16.7-37.17a8.12 8.12 0 0 0 -4.08-10.73z" fill="url(#b)"/><path d="m342.42 28.85a49.94 49.94 0 0 0 -15.95-4.16 50.27 50.27 0 0 0 -9-.84h-181.25a50.12 50.12 0 0 0 0 100.24h98.6a6.71 6.71 0 0 1 2.41.56 6.59 6.59 0 0 1 3.31 8.71 3.37 3.37 0 0 1 -.19.32l-101.35 225.76a50 50 0 0 0 -3.83 13.22 22.58 22.58 0 0 1 12.46 41 49.94 49.94 0 0 0 16.56 12 50.12 50.12 0 0 0 66.25-25.19l137.17-305.37a50.11 50.11 0 0 0 -25.19-66.25zm-204.32 80.08a35.54 35.54 0 1 1 35.54-35.54 35.54 35.54 0 0 1 -35.54 35.54z" fill="url(#c)"/></svg>